<svg width="18" height="19" viewBox="0 0 18 19" fill="none" xmlns="http://www.w3.org/2000/svg">
<path fill-rule="evenodd" clip-rule="evenodd" d="M15.6486 6.26106V6.25195H15.6391L9.20136 0.0800131C9.09011 -0.0265083 8.90989 -0.0265083 8.79864 0.0800131L2.36095 6.25195H2.35145V6.26106L0.0842936 8.43462C0.00222611 8.51266 -0.022537 8.63049 0.0216091 8.73291C0.0657551 8.83532 0.170063 8.90202 0.28565 8.90175H2.06651C2.22388 8.90175 2.35145 9.02405 2.35145 9.17492V18.7269C2.35145 18.8778 2.47902 19.0001 2.63639 19.0001H6.4992C6.65656 19.0001 6.78413 18.8778 6.78413 18.7269V12.8992C6.78413 12.7483 6.9117 12.626 7.06907 12.626H10.9309C11.0883 12.626 11.2159 12.7483 11.2159 12.8992V18.7269C11.2159 18.8778 11.3434 19.0001 11.5008 19.0001H15.3636C15.521 19.0001 15.6486 18.8778 15.6486 18.7269V9.17492C15.6486 9.02405 15.7761 8.90175 15.9335 8.90175H17.7143C17.8299 8.90202 17.9342 8.83532 17.9784 8.73291C18.0225 8.63049 17.9978 8.51266 17.9157 8.43462L15.6486 6.26106Z" fill="#005EB8"/>
</svg>
