<svg width="21" height="20" viewBox="0 0 21 20" fill="none" xmlns="http://www.w3.org/2000/svg">
<path fill-rule="evenodd" clip-rule="evenodd" d="M10.7534 0C5.23057 0 0.753418 4.47715 0.753418 10C0.753418 15.5228 5.23057 20 10.7534 20C16.2763 20 20.7534 15.5228 20.7534 10C20.7534 7.34784 19.6999 4.8043 17.8245 2.92893C15.9491 1.05357 13.4056 0 10.7534 0ZM11.2834 15.362C11.0937 15.5222 10.8237 15.5454 10.6094 15.42C10.3808 15.3027 10.2497 15.055 10.2814 14.8C10.2814 14.304 10.6154 14 11.0414 14.096C11.2724 14.1339 11.4544 14.3135 11.4954 14.544C11.5534 14.842 11.5534 15.146 11.2834 15.362ZM13.0834 9.962C12.7634 10.222 12.4154 10.45 12.0694 10.678C11.7167 10.8749 11.517 11.2647 11.5634 11.666C11.5745 11.767 11.5745 11.869 11.5634 11.97C11.5308 12.2888 11.2534 12.5257 10.9334 12.508C10.6208 12.5013 10.3628 12.2613 10.3334 11.95C10.2434 11.008 10.5234 10.228 11.3334 9.684C11.6394 9.484 11.9334 9.262 12.2534 9.06C13.2534 8.412 13.2534 6.634 12.0094 6.034C11.1982 5.61724 10.2348 5.62172 9.42742 6.046C9.00189 6.26392 8.66946 6.6283 8.49142 7.072C8.41554 7.29344 8.22106 7.453 7.98907 7.48416C7.75707 7.51533 7.52738 7.41274 7.39575 7.21918C7.26413 7.02561 7.25316 6.7743 7.36742 6.57C7.91342 5.448 8.84542 4.83 10.0394 4.57C10.2546 4.53364 10.4716 4.50893 10.6894 4.496C11.9094 4.542 12.8714 4.996 13.5914 5.896C14.5914 7.16 14.3674 8.926 13.0874 9.968L13.0834 9.962Z" fill="#005EB8"/>
</svg>
