<svg width="25" height="24" viewBox="0 0 25 24" fill="none" xmlns="http://www.w3.org/2000/svg">
<path fill-rule="evenodd" clip-rule="evenodd" d="M9.51923 4.0005C8.6622 4.01717 7.97151 4.69612 7.95455 5.53858L11.0451 5.5004C11.0543 5.0999 10.8965 4.71312 10.6083 4.42985C10.3201 4.14658 9.92666 3.99146 9.51923 4.0005ZM15.4961 11.517C15.4961 11.517 15.0573 14.9851 15.8757 17.4896C16.3224 18.8602 18 20.9232 18 20.9232H1C1 20.9232 2.6776 18.8602 3.12434 17.4896C3.94271 14.9851 3.50388 11.645 3.50388 11.645V11.279C3.55247 8.09497 6.22422 5.53858 9.50329 5.53858C12.7824 5.53858 15.4541 8.09497 15.5027 11.279L15.4961 11.517ZM11.8182 21.6924C11.8182 22.9669 10.6073 24.0001 9.11364 24.0001C7.61996 24.0001 6.40909 22.9669 6.40909 21.6924H11.8182Z" fill="#005EB8"/>
</svg>
