<svg width="20" height="18" viewBox="0 0 20 18" fill="none" xmlns="http://www.w3.org/2000/svg">
<path fill-rule="evenodd" clip-rule="evenodd" d="M10.3534 0C15.6554 0 19.9534 4.36 19.9534 9.74C19.9534 13.012 18.3624 15.907 15.9224 17.673C15.8644 17.105 15.7324 16.586 15.4374 16.111C14.5504 14.687 12.9794 14.024 10.4914 14.024C7.97742 14.024 6.40042 14.686 5.52642 16.109C5.18942 16.657 5.05742 17.116 5.00742 17.828C2.44142 16.08 0.753418 13.11 0.753418 9.739C0.753418 4.36 5.05142 0 10.3534 0ZM6.89742 9.675C6.89742 11.571 8.45742 13.115 10.3744 13.115C12.2924 13.115 13.8514 11.571 13.8514 9.675C13.8514 7.776 12.2914 6.233 10.3744 6.233C8.45642 6.233 6.89742 7.776 6.89742 9.675Z" fill="#005EB8"/>
</svg>
