<svg width="24" height="24" viewBox="0 0 24 24" fill="none" xmlns="http://www.w3.org/2000/svg">
<path fill-rule="evenodd" clip-rule="evenodd" d="M5.25114 18H6.26204H17.5C18.0523 18 18.5 17.5523 18.5 17V8C18.5 7.8175 18.4511 7.64642 18.3657 7.49913C18.1908 7.08259 17.8191 6.7935 17.3311 6.7935L10.168 6.84408L8.68541 5H5.25114C4.56288 5 4 5.56973 4 6.26637V8V16.7336V17C4 17.5523 4.44771 18 5 18H5.25114ZM11.7466 9.67777C11.7102 9.29744 11.3898 9 11 9C10.5858 9 10.25 9.33579 10.25 9.75L10.2496 11.2496L8.75 11.25L8.67777 11.2534C8.29744 11.2898 8 11.6102 8 12C8 12.4142 8.33579 12.75 8.75 12.75L10.2496 12.7498L10.25 14.25L10.2534 14.3222C10.2898 14.7026 10.6102 15 11 15C11.4142 15 11.75 14.6642 11.75 14.25L11.7498 12.7498L13.25 12.75L13.3222 12.7466C13.7026 12.7102 14 12.3898 14 12C14 11.5858 13.6642 11.25 13.25 11.25L11.7498 11.2496L11.75 9.75L11.7466 9.67777Z" fill="#005EB8"/>
</svg>
