<svg width="28" height="28" viewBox="0 0 28 28" fill="none" xmlns="http://www.w3.org/2000/svg">
<path fill-rule="evenodd" clip-rule="evenodd" d="M22.5866 25.6667H5.41329C5.00092 25.6667 4.66663 25.3324 4.66663 24.92V3.08C4.66663 2.66763 5.00092 2.33334 5.41329 2.33334H18.1766V6.58654C18.1766 7.08551 18.5811 7.49 19.0801 7.49H23.3333V24.92C23.3333 25.3324 22.999 25.6667 22.5866 25.6667ZM18.6666 6.25334V2.33334L23.3333 7H19.4133C19.0009 7 18.6666 6.66571 18.6666 6.25334ZM7.06306 6.7625C6.9319 6.7625 6.82556 6.86883 6.82556 7C6.82556 7.13117 6.9319 7.2375 7.06306 7.2375H14.6581C14.7892 7.2375 14.8956 7.13117 14.8956 7C14.8956 6.86883 14.7892 6.7625 14.6581 6.7625H7.06306ZM7.00001 9.54269C6.86884 9.54269 6.76251 9.64902 6.76251 9.78019C6.76251 9.91136 6.86884 10.0177 7.00001 10.0177H19.166C19.2972 10.0177 19.4035 9.91136 19.4035 9.78019C19.4035 9.64902 19.2972 9.54269 19.166 9.54269H7.00001ZM7.17976 12.2844C7.04859 12.2844 6.94226 12.3907 6.94226 12.5219C6.94226 12.653 7.04859 12.7594 7.17976 12.7594H19.1661C19.2973 12.7594 19.4036 12.653 19.4036 12.5219C19.4036 12.3907 19.2973 12.2844 19.1661 12.2844H7.17976ZM6.94226 15.1469C6.94226 15.0157 7.04859 14.9094 7.17976 14.9094H12.4414C12.5726 14.9094 12.6789 15.0157 12.6789 15.1469C12.6789 15.278 12.5726 15.3844 12.4414 15.3844H7.17976C7.04859 15.3844 6.94226 15.278 6.94226 15.1469ZM12.4207 19.0787C12.3138 19.3211 12.2604 19.621 12.2604 19.9783C12.2604 20.5365 12.4143 20.9752 12.7222 21.2942C13.03 21.6116 13.4447 21.7703 13.9663 21.7703C14.4815 21.7703 14.893 21.6108 15.2009 21.2918C15.5087 20.9712 15.6626 20.5278 15.6626 19.9615C15.6626 19.3905 15.5071 18.9447 15.1961 18.6241C14.8867 18.3035 14.4735 18.1432 13.9567 18.1432C13.6712 18.1432 13.4192 18.1894 13.2007 18.2819C13.0364 18.3505 12.8849 18.4558 12.7461 18.5978C12.6089 18.7397 12.5005 18.9 12.4207 19.0787ZM13.2653 20.8587C13.0819 20.653 12.9901 20.3515 12.9901 19.9544C12.9901 19.5508 13.0795 19.2493 13.2581 19.05C13.4368 18.849 13.672 18.7485 13.9639 18.7485C14.2558 18.7485 14.4895 18.8474 14.6649 19.0452C14.842 19.243 14.9305 19.5428 14.9305 19.9448C14.9305 20.3515 14.8396 20.657 14.6578 20.8611C14.4775 21.0637 14.2462 21.165 13.9639 21.165C13.6816 21.165 13.4487 21.0629 13.2653 20.8587ZM10.1549 18.203H8.86055V21.7105H10.1932C10.4548 21.7105 10.6638 21.6858 10.8201 21.6363C11.029 21.5693 11.1949 21.476 11.3177 21.3564C11.4804 21.1985 11.6056 20.9919 11.6934 20.7367C11.7651 20.5278 11.801 20.2789 11.801 19.9902C11.801 19.6617 11.7627 19.3857 11.6862 19.1624C11.6096 18.9375 11.498 18.7477 11.3512 18.593C11.2045 18.4383 11.0282 18.3306 10.8225 18.27C10.6693 18.2253 10.4468 18.203 10.1549 18.203ZM9.56875 21.1195V18.7963H9.88697C10.1757 18.7963 10.3695 18.8075 10.4684 18.8298C10.6008 18.8586 10.71 18.9136 10.7961 18.9949C10.8823 19.0763 10.9493 19.1895 10.9971 19.3347C11.045 19.4798 11.0689 19.688 11.0689 19.9591C11.0689 20.2303 11.045 20.4448 10.9971 20.6027C10.9493 20.7591 10.8871 20.8715 10.8105 20.9401C10.7355 21.0087 10.6406 21.0573 10.5258 21.086C10.4381 21.1084 10.2953 21.1195 10.0975 21.1195H9.56875ZM18.462 20.4209L19.1486 20.6386C19.0434 21.0214 18.8679 21.3062 18.6223 21.4928C18.3782 21.6778 18.068 21.7703 17.6916 21.7703C17.2258 21.7703 16.843 21.6116 16.5431 21.2942C16.2432 20.9752 16.0933 20.5397 16.0933 19.9878C16.0933 19.4041 16.244 18.9511 16.5455 18.6289C16.847 18.3051 17.2433 18.1432 17.7346 18.1432C18.1637 18.1432 18.5122 18.27 18.7802 18.5236C18.9397 18.6735 19.0593 18.8889 19.1391 19.1696L18.438 19.3371C18.3966 19.1552 18.3096 19.0117 18.1772 18.9064C18.0465 18.8011 17.8869 18.7485 17.6987 18.7485C17.4387 18.7485 17.2274 18.8418 17.0647 19.0284C16.9036 19.215 16.823 19.5173 16.823 19.9352C16.823 20.3786 16.9028 20.6945 17.0623 20.8827C17.2218 21.0709 17.4292 21.165 17.6844 21.165C17.8726 21.165 18.0345 21.1052 18.1701 20.9856C18.3056 20.8659 18.4029 20.6777 18.462 20.4209Z" fill="#005EB8"/>
</svg>
