<svg width="40" height="40" viewBox="0 0 40 40" fill="none" xmlns="http://www.w3.org/2000/svg">
<rect width="40" height="40" rx="4" fill="white"/>
<rect width="40" height="40" fill="#F0F4F5"/>
<mask id="mask0" mask-type="alpha" maskUnits="userSpaceOnUse" x="20" y="6" width="15" height="28">
<path fill-rule="evenodd" clip-rule="evenodd" d="M20.6237 6.00012H34.4223V33.9997H20.6237V6.00012Z" fill="white"/>
</mask>
<g mask="url(#mask0)">
<path fill-rule="evenodd" clip-rule="evenodd" d="M20.6399 33.9699C20.6399 33.9531 22.9628 30.8135 25.8011 26.9926C28.6404 23.1723 30.9627 20.0143 30.9627 19.9758C30.9627 19.9243 22.1184 7.96312 20.7906 6.21908L20.6237 6.00012L22.3693 6.00175L24.1145 6.00283L29.2994 12.9866C32.9013 17.8388 34.4649 19.9953 34.4216 20.0522C34.3874 20.0972 32.044 23.2541 29.2144 27.0669L24.0689 33.9997H22.3547C21.4111 33.9997 20.6399 33.9856 20.6399 33.9688V33.9699Z" fill="#EC8A00"/>
</g>
<path fill-rule="evenodd" clip-rule="evenodd" d="M13.4597 33.9167C13.9322 33.3281 23.7532 20.0473 23.7581 19.9904C23.7619 19.9476 21.5035 16.8681 18.7389 13.1475C15.9744 9.42692 13.6558 6.29707 13.5876 6.19192L13.4629 6.00061H15.1847H16.9066L22.0563 12.9323C24.8886 16.7445 27.2061 19.915 27.2061 19.9779C27.2061 20.0402 24.8837 23.2205 22.0449 27.044L16.8832 33.9969L15.1376 33.9991C13.7501 34.0007 13.406 33.9839 13.4597 33.9167Z" fill="#F0A133"/>
<mask id="mask1" mask-type="alpha" maskUnits="userSpaceOnUse" x="6" y="6" width="14" height="28">
<path fill-rule="evenodd" clip-rule="evenodd" d="M6 6H19.7884V34H6V6Z" fill="white"/>
</mask>
<g mask="url(#mask1)">
<path fill-rule="evenodd" clip-rule="evenodd" d="M6.01656 33.9452C6.02848 33.9149 8.35405 30.7753 11.1837 26.969C14.0133 23.1623 16.328 20.0151 16.328 19.9755C16.328 19.9359 14.1677 16.9958 11.5267 13.441C8.88518 9.88628 6.56177 6.75806 6.36233 6.48924L5.99976 5.99985L7.74001 6.00147L9.48026 6.0031L14.6652 12.9869C18.2888 17.8673 19.8313 19.995 19.7874 20.0525C19.7532 20.098 17.4098 23.2544 14.5807 27.0677L9.43636 34H7.71508C6.7688 34 6.00409 33.9756 6.01656 33.9452Z" fill="#F3B55C"/>
</g>
</svg>
